<svg xmlns="http://www.w3.org/2000/svg" viewBox="0 0 94.79 187.48"><defs><style>.cls-1{font-size:32.07px;fill:#231f20;font-family:MyriadPro-Regular, Myriad Pro;letter-spacing:0.01em;}.cls-2{letter-spacing:0em;}</style></defs><title>Asset 15</title><g id="Layer_2" data-name="Layer 2"><g id="Layer_1-2" data-name="Layer 1"><path d="M47.88,45.44c8.41,0,16.83.24,25.23-.09,4.93-.19,8.7,1.88,12.62,4.29C90.14,52.35,92,56.81,94.32,61a3.6,3.6,0,0,1,.35,1.63c.18,6.72.39,13.43-1.34,20-.48,1.79-.27,3.76-.49,5.63-.86,7-1.5,14-2.42,21-.75,5.59-.61,11.36-2.45,16.77a21.15,21.15,0,0,1-6.55,9.32,21.52,21.52,0,0,1-12.19,5.41c-3.27.32-6.52.54-9.79.57-8.69.07-17.38-.05-26.08.06a66.58,66.58,0,0,1-10.85-1.05c-4.67-.71-7.86-4-11-7.26-4.2-4.38-5-9.84-5.66-15.58-.58-4.9-.78-9.89-2-14.72a21.44,21.44,0,0,1-.61-5.41c0-6.76-1.79-13.32-2-20.06C1.18,74.21-.1,71.23,0,68c.11-3.51,1.32-6.57,2.59-9.76a20.73,20.73,0,0,1,6.63-8.45,17.88,17.88,0,0,1,11.31-4.34Zm-.15,21.89c-8.2,0-16.4,0-24.6,0-2.52,0-3.54,1.3-3.61,4.16-.05,1.89,1.09,3.08,3.28,3.33a23.41,23.41,0,0,0,2.52.08c10,0,20,0,30.07,0,5.81,0,11.63-.34,17.43.28a2.65,2.65,0,0,0,2.75-1.59c1.53-3.21-.34-6.28-3.86-6.29C63.72,67.31,55.73,67.33,47.73,67.33ZM46.8,98.86h0c6.79,0,13.59,0,20.38,0a21.12,21.12,0,0,0,4-.41c2.24-.43,3.33-2.27,2.94-4.75a4.18,4.18,0,0,0-4-3,99.2,99.2,0,0,1-10.49.17c-11.2,0-22.41,0-33.62,0-1.57,0-3.09.1-4.05,1.65a4.1,4.1,0,0,0,3.7,6.31C32.65,98.9,39.73,98.86,46.8,98.86Zm.94,24v0c6.65,0,13.31,0,20,0a5,5,0,0,0,4.66-2.62,3.92,3.92,0,0,0-3.54-5.78c-13.51-.24-27,.27-40.53-.25-1.84-.07-4.19-.3-5,2.41-1.06,3.51.81,6.21,4.5,6.22C34.44,122.86,41.09,122.85,47.74,122.85Z"/><path d="M59,21.13V35.41c0,4.28-.76,5.43-5.08,5.7-4.09.26-8.24.58-12.33-.39-1.08-.26-2.24-.19-3.33-.41-1.43-.3-2.63-.85-1.75-2.71a1.88,1.88,0,0,0,.17-.82c-.08-7.83.23-15.67-.18-23.51-.17-3.31-.85-6.62.12-10A3.68,3.68,0,0,1,39.18.4,14.73,14.73,0,0,1,43.56,0c3.5,0,7,0,10.5,0A4.69,4.69,0,0,1,58.93,5c0,5.39,0,10.78,0,16.18Z"/><text class="cls-1" transform="translate(22.83 179.46)">G<tspan class="cls-2" x="20.97" y="0">as</tspan></text></g></g></svg>