<svg xmlns="http://www.w3.org/2000/svg" viewBox="0 0 35.61 82.68"><title>Asset 17</title><g id="Layer_2" data-name="Layer 2"><g id="Layer_1-2" data-name="Layer 1"><path d="M18,0a30,30,0,0,1,7.62.72c1.65.35,3.32.58,4.26,2.3.36.67,1.17.72,1.84.89A4.1,4.1,0,0,1,35,7.59c1.28,8.92.62,17.62-3.06,25.94-1.38,3.12-4,5-7,6.4a2.45,2.45,0,0,0-1.66,2.36,141.64,141.64,0,0,1-.95,14.15,13.4,13.4,0,0,0,0,5.64,1.44,1.44,0,0,1,0,1C20.63,65.54,22,68.47,21,71c-.24.63.09,1.2.24,1.82.77,3.12.57,6.1-1.56,8.72-1.09,1.35-2.12,1.55-3.47.2-3-3-2.48-6.65-1.76-10.26a5.27,5.27,0,0,0-.25-3.85.91.91,0,0,1-.19-.6c1.16-4.1-1.71-7.94-.67-12.18.43-1.76-.79-4-.77-6.11s-.28-4.33-.34-6.5A2.2,2.2,0,0,0,10.77,40,15,15,0,0,1,2.08,29.85,52.23,52.23,0,0,1,.43,8.43c.3-2.44,1.36-4.26,4-4.82a2.72,2.72,0,0,0,.78-.29C11,0,11,0,18,0Z"/></g></g></svg>