<svg xmlns="http://www.w3.org/2000/svg" viewBox="0 0 312.59 312.67"><title>Asset 18</title><g id="Layer_2" data-name="Layer 2"><g id="Layer_1-2" data-name="Layer 1"><path d="M0,156.41C-.92,71.26,69.55-.19,156.18,0c86.4.19,156.54,70.05,156.41,156.4-.13,87-70.92,156.52-156.92,156.26C69,312.41-.79,241.26,0,156.41ZM147.78,36.84c0-4.39-.15-8.78.05-13.16.15-3.28-1.14-4.27-4.3-3.93A144.22,144.22,0,0,0,94.85,33.6c-2.66,1.31-2.92,2.55-1.41,5Q99.92,49.28,106,60.18c3.62,6.52,4,5-2.39,8.84-.69.42-1.43.77-2.07,1.25-2.42,1.8-4,1.28-5.48-1.38-4.42-8-9.07-15.82-13.55-23.76-1.27-2.25-2.46-2.91-4.84-1.22A141.68,141.68,0,0,0,42,80.31c-1.69,2.48-1.05,3.78,1.38,5.12q9.54,5.28,18.91,10.87c9.7,5.78,8.82,3,3.44,12.88-1.2,2.22-2.36,2.62-4.62,1.28-7.83-4.65-15.79-9.1-23.69-13.65-3.53-2-3.88-2-5.63,1.77-.83,1.77-1.6,3.58-2.33,5.4a132.41,132.41,0,0,0-9.88,42.27c-.18,3.22,1,4.27,4.17,4.19,7.26-.16,14.54-.1,21.81,0,9.89.09,8.58-1.36,8.79,8.93.06,3.12-1.06,4.35-4.22,4.3-8.31-.12-16.62,0-24.93,0-5.68,0-6,.2-5.45,5.85A139.54,139.54,0,0,0,32.3,215.28c1.29,2.79,2.64,3.25,5.28,1.65,6.51-4,13.16-7.66,19.73-11.51,7.48-4.39,7.35-4.34,11.58,3.29,1.63,2.93,1,4.44-1.75,6-7.57,4.19-15,8.55-22.52,12.93-4,2.37-4,2.5-1.46,6.23A138.78,138.78,0,0,0,64.6,258.22a134,134,0,0,0,80.9,34.7A133.56,133.56,0,0,0,222.83,276a137.12,137.12,0,0,0,47.24-43.39c1.36-2,1.14-3.08-1-4.28-7.65-4.29-15.24-8.69-22.81-13.11s-7.58-4.47-3.07-12.27c1.58-2.72,3-2.77,5.48-1.27,8.83,5.24,17.82,10.22,26.66,15.43,2.32,1.37,3.41.83,4.5-1.46A147,147,0,0,0,293,167.48c.31-2.87-.65-4-3.58-3.93-7.5.13-15,.07-22.51,0-9.85-.05-8.43.88-8.52-8.46,0-4.55.15-4.72,4.61-4.73,8.66,0,17.31,0,26,0,4,0,4.4-.4,4-4.41-.28-3.1-.78-6.18-1.19-9.27a134.16,134.16,0,0,0-12.2-40.25c-2-4.22-2.11-4.18-6-1.94-6.82,3.89-13.59,7.86-20.45,11.67-7.57,4.2-7.46,4-12.08-3.51-1.72-2.81-.87-3.9,1.58-5.28,8.45-4.75,16.76-9.74,25.2-14.5,2.23-1.25,2.75-2.37,1.2-4.57a143.5,143.5,0,0,0-37.13-36.38c-2.29-1.55-3.27-1-4.49,1.24-3.73,6.76-7.63,13.44-11.54,20.11-4.49,7.67-4.47,7.55-12.13,2.9-2.61-1.58-2.81-3-1.29-5.53,4.7-7.82,9.16-15.77,13.74-23.65,1-1.73,1.84-3.14-.78-4.38a136.2,136.2,0,0,0-50.63-13c-2.86-.16-3.92.89-3.87,3.76.13,7.27.1,14.54,0,21.81-.12,10.64,1.52,9-9.51,9.22-2.76.06-3.68-1.09-3.63-3.69C147.86,46.07,147.79,41.45,147.78,36.84Z"/></g></g></svg>