<svg xmlns="http://www.w3.org/2000/svg" viewBox="0 0 95.13 187.6"><defs><style>.cls-1{font-size:32.07px;fill:#231f20;font-family:MyriadPro-Regular, Myriad Pro;letter-spacing:0em;}.cls-2{letter-spacing:0em;}</style></defs><title>Asset 14</title><g id="Layer_2" data-name="Layer 2"><g id="Layer_1-2" data-name="Layer 1"><path d="M47.55,45.56c8.42,0,16.83.19,25.24-.06,6.56-.2,11.49,2.67,15.94,7,5.66,5.53,7.35,12.56,5.92,19.81s-2.34,14.57-4.27,21.73c-1,3.74-1.5,7.66-2.58,11.42-1.31,4.59-4.13,8-7.9,11C75.4,120,70.43,120.9,65,120.9c-12.2,0-24.4.18-36.59-.06-9.17-.19-16-4.45-20.28-12.8-1.7-3.33-1.87-7-2.83-10.41C4,93,3.87,88.1,2.48,83.46A13.84,13.84,0,0,1,1.91,80a7.27,7.27,0,0,0-.37-2.9C-.48,72.9-.12,68.44.42,64.24c1-7.58,5.56-12.9,12.22-16.57a18.75,18.75,0,0,1,9.68-2.14C30.73,45.64,39.14,45.56,47.55,45.56ZM76,71.17c0-2.44-1.5-3.72-4.54-3.72q-21.75,0-43.49,0c-1.88,0-3.77-.4-5.65,0a3.83,3.83,0,0,0-3.11,3.89c0,2.07,1,3.15,3,3.72,2.13.61,4.17-.08,6.25-.08,10.72.06,21.44,0,32.15,0a97.39,97.39,0,0,1,11.33.23C74,75.55,76,73.44,76,71.17ZM47.2,99c7.42,0,14.85,0,22.27,0,2.85,0,4.8-1.78,4.77-4.17,0-2.23-1.81-3.8-4.68-3.76-14.83.23-29.66-.5-44.49-.08a4.29,4.29,0,0,0-3.92,2.42,3.81,3.81,0,0,0,1,4.41A4.23,4.23,0,0,0,25.55,99Z"/><path d="M59.14,21.76c0,5.46,0,10.93,0,16.39,0,2.51-.3,2.88-2.78,2.79-4.5-.17-9,.55-13.44.41A17.69,17.69,0,0,1,40,41.09c-3.43-.72-4-1.47-4-5q0-15.24,0-30.49c0-2.94,1.49-5,4.33-5.22A65,65,0,0,1,55.24.46a4.46,4.46,0,0,1,3.89,4.69C59.17,10.68,59.15,16.22,59.14,21.76Z"/><text class="cls-1" transform="translate(17.47 179.58)">R<tspan class="cls-2" x="17.38" y="0">em</tspan></text></g></g></svg>