<svg xmlns="http://www.w3.org/2000/svg" viewBox="0 0 112.13 55.83"><title>Asset 13</title><g id="Layer_2" data-name="Layer 2"><g id="Layer_1-2" data-name="Layer 1"><path d="M29.64,30.05c-.64,1.2-1.43,2.17-1.95,3.33-2.57,5.86-1.11,11.38,3,15.76,3.72,4,8.51,5.88,13.85,6.51a24.26,24.26,0,0,0,13.3-2.12A17.83,17.83,0,0,0,66.27,46a13.52,13.52,0,0,0-.62-14.81c-.17-.25-.54-.53-.42-.8s.62-.14,1-.18a1.68,1.68,0,0,1,1.89,1c.71,1.18,1.78,2.1,3.39,1.63.36-.11.51.11.66.37a4.52,4.52,0,0,0,3.7,2.6c.34,0,.49.28.64.51a19.48,19.48,0,0,0,4.19,4.59A17.92,17.92,0,0,0,90.76,45,18.57,18.57,0,0,0,100,43.7c6.1-2.79,10.12-7.33,11.64-13.92a17.57,17.57,0,0,0-2-12.88A19.29,19.29,0,0,0,86.9,7.82a18.62,18.62,0,0,0-10.81,8.54c-.18.3-.33.61-.74.67a4.79,4.79,0,0,0-3,2.14c-.2.26-.33.54-.74.44-1.83-.42-3,.5-3.74,2a1.26,1.26,0,0,1-1.33.78c-11.1,0-22.2,0-33.3-.12A25,25,0,0,1,22.57,20a8.16,8.16,0,0,1-2.15-1.69Q13.68,11.49,7,4.66c-.78-.79-1.58-1.55-2.38-2.32-.13-.12-.25-.34-.46-.22S4,2.45,4,2.63C4,3.8,4,5,4,6.14q-.23,21.11-.18,42.21c0,.26,0,.51,0,.76s-.08.49.17.59.38-.17.52-.31l7-7c3-3,6-6,9.08-9,1.81-1.77,4.17-2.45,6.56-3C27.91,30.25,28.73,30.18,29.64,30.05Zm17,.16c4.82,0,8.63,1.14,11.66,4.33a6.22,6.22,0,0,1,.88,8,12.1,12.1,0,0,1-7.86,5,18.25,18.25,0,0,1-8,0c-3.63-.8-6.65-2.5-8.44-6-1.43-2.78,0-6.23,2.57-8.17A14.51,14.51,0,0,1,46.64,30.21Z" transform="translate(0 0)"/><path d="M.17,15.84c0,4.55.1,9.1,0,13.65C0,36.19.07,42.89,0,49.59a1.9,1.9,0,0,0,.16,1.1,1.48,1.48,0,0,0,1.6.77A1.34,1.34,0,0,0,3,50.07c0-1.8,0-3.6,0-5.4q.1-20.8.2-41.61a8,8,0,0,0-.11-1.89C2.89.53,2.57,0,1.87,0A1.58,1.58,0,0,0,.37,1,2.48,2.48,0,0,0,.22,2.09V15.84Z" transform="translate(0 0)"/></g></g></svg>